<svg id="Group_3" data-name="Group 3" xmlns="http://www.w3.org/2000/svg" width="75.703" height="54.5" viewBox="0 0 75.703 54.5">
  <g id="Group_1" data-name="Group 1" transform="translate(3.884 49.123)">
    <path id="Path_1" data-name="Path 1" d="M22.58,285.872h.666l1.883,4.56,1.89-4.56h.643L25.385,291.2h-.529Z" transform="translate(-22.58 -285.872)" fill="#fff"/>
    <path id="Path_2" data-name="Path 2" d="M88.1,285.872h3.826v.545H88.7v1.807h2.889v.545H88.7v1.853h3.267v.545H88.1Z" transform="translate(-76.841 -285.872)" fill="#fff"/>
    <path id="Path_3" data-name="Path 3" d="M147.449,285.872h.56l3.335,4.242v-4.242h.581v5.293h-.476l-3.418-4.341v4.341h-.582Z" transform="translate(-125.991 -285.872)" fill="#fff"/>
    <path id="Path_4" data-name="Path 4" d="M211.664,286.424h-1.777v-.552h4.158v.552h-1.776v4.741h-.6Z" transform="translate(-177.701 -285.872)" fill="#fff"/>
    <path id="Path_5" data-name="Path 5" d="M269.991,288.951v-3.078h.6v3.04c0,1.142.6,1.785,1.618,1.785.976,0,1.6-.59,1.6-1.747v-3.078h.6v3.032a2.207,2.207,0,1,1-4.409.045Z" transform="translate(-227.477 -285.873)" fill="#fff"/>
    <path id="Path_6" data-name="Path 6" d="M333.747,285.872h2.276a2.086,2.086,0,0,1,1.5.529,1.462,1.462,0,0,1,.408,1.044v.015A1.549,1.549,0,0,1,336.5,289l1.626,2.163h-.733l-1.535-2.057h-1.512v2.057h-.6Zm2.223,2.7c.794,0,1.361-.408,1.361-1.089v-.015c0-.65-.5-1.043-1.354-1.043h-1.633v2.148Z" transform="translate(-280.277 -285.872)" fill="#fff"/>
    <path id="Path_7" data-name="Path 7" d="M395.434,285.872h3.826v.545h-3.229v1.807h2.889v.545h-2.889v1.853H399.3v.545h-3.864Z" transform="translate(-331.364 -285.872)" fill="#fff"/>
  </g>
  <g id="Group_2" data-name="Group 2">
    <path id="Path_8" data-name="Path 8" d="M312.529,49.426a11.984,11.984,0,0,0-8.162,3.2v0H300.5V81.971h3.866V70.287a12.029,12.029,0,1,0,8.162-20.861Zm0,20.191a8.162,8.162,0,1,1,8.162-8.162A8.162,8.162,0,0,1,312.529,69.617Z" transform="translate(-248.859 -40.933)" fill="#fff"/>
    <path id="Path_9" data-name="Path 9" d="M12.008,49.426A12.029,12.029,0,1,0,20.17,70.287v0a8.162,8.162,0,0,1-8.162,8.162V82.32A12.029,12.029,0,0,0,24.037,70.291V52.623H20.172A11.984,11.984,0,0,0,12.008,49.426Zm0,20.191a8.162,8.162,0,1,1,8.162-8.162A8.162,8.162,0,0,1,12.008,69.617Z" transform="translate(0.025 -40.933)" fill="#fff"/>
    <path id="Path_10" data-name="Path 10" d="M169.426,11.689a12.029,12.029,0,1,0,0,17.665v0h3.866V0h-3.866Zm-8.162,16.995a8.162,8.162,0,1,1,8.162-8.162,8.162,8.162,0,0,1-8.162,8.162Z" transform="translate(-123.584)" fill="#fff"/>
  </g>
</svg>
